<svg xmlns="http://www.w3.org/2000/svg" xmlns:xlink="http://www.w3.org/1999/xlink" preserveAspectRatio="xMidYMid" width="64" height="64" viewBox="0 0 64 64">
  <defs>
    <style>
      .cls-1 {
        fill: #ba271f;
        fill-rule: evenodd;
      }
    </style>
  </defs>
  <path d="M32.000,64.000 C14.327,64.000 -0.000,49.673 -0.000,32.000 C-0.000,14.327 14.327,0.000 32.000,0.000 C49.673,0.000 64.000,14.327 64.000,32.000 C64.000,49.673 49.673,64.000 32.000,64.000 ZM32.000,2.000 C15.431,2.000 2.000,15.431 2.000,32.000 C2.000,48.569 15.431,62.000 32.000,62.000 C48.569,62.000 62.000,48.569 62.000,32.000 C62.000,15.431 48.569,2.000 32.000,2.000 ZM32.000,60.000 C16.536,60.000 4.000,47.464 4.000,32.000 C4.000,16.536 16.536,4.000 32.000,4.000 C47.464,4.000 60.000,16.536 60.000,32.000 C60.000,47.464 47.464,60.000 32.000,60.000 ZM51.075,14.339 L48.970,16.444 C48.579,16.834 47.946,16.834 47.556,16.444 C47.165,16.053 47.165,15.420 47.556,15.029 L49.660,12.925 C45.251,8.840 39.424,6.268 32.999,6.025 L32.999,9.000 C32.999,9.553 32.552,10.000 31.999,10.000 C31.446,10.000 30.999,9.553 30.999,9.000 L30.999,6.025 C24.574,6.268 18.747,8.841 14.338,12.926 L16.442,15.030 C16.833,15.421 16.833,16.053 16.442,16.444 C16.052,16.835 15.419,16.835 15.028,16.444 L12.924,14.341 C8.840,18.750 6.269,24.577 6.025,31.002 L8.999,31.002 C9.552,31.002 9.998,31.448 9.999,32.002 C9.999,32.554 9.552,33.001 8.999,33.002 L6.025,33.002 C6.270,39.427 8.842,45.253 12.926,49.662 L15.030,47.559 C15.421,47.168 16.052,47.168 16.444,47.559 C16.834,47.948 16.834,48.581 16.444,48.973 L14.341,51.076 C18.750,55.160 24.576,57.731 31.001,57.974 L31.002,55.001 C31.002,54.448 31.448,54.002 32.002,54.001 C32.553,54.001 33.000,54.448 33.002,55.001 L33.001,57.974 C39.426,57.731 45.252,55.159 49.661,51.074 L47.558,48.971 C47.167,48.579 47.167,47.947 47.558,47.556 C47.947,47.166 48.580,47.166 48.973,47.556 L51.075,49.660 C55.160,45.251 57.731,39.425 57.975,33.000 L55.000,33.000 C54.447,33.000 54.000,32.553 54.000,32.000 C54.000,31.447 54.447,31.000 55.000,31.000 L57.975,31.000 C57.731,24.575 55.159,18.748 51.075,14.339 ZM41.192,45.436 L32.687,36.930 C32.461,36.962 32.235,37.000 32.000,37.000 C29.238,37.000 27.000,34.762 27.000,32.000 C27.000,30.369 27.792,28.936 29.000,28.022 L29.000,14.000 C29.000,12.343 30.343,11.000 32.000,11.000 C33.657,11.000 35.000,12.343 35.000,14.000 L35.000,28.022 C36.208,28.936 37.000,30.369 37.000,32.000 C37.000,32.236 36.962,32.461 36.931,32.688 L45.435,41.192 C46.606,42.364 46.606,44.263 45.435,45.435 C44.263,46.606 42.364,46.607 41.192,45.436 ZM33.000,14.000 C33.000,13.447 32.553,13.000 32.000,13.000 C31.447,13.000 31.000,13.447 31.000,14.000 L31.000,27.101 C31.323,27.035 31.657,27.000 32.000,27.000 C32.343,27.000 32.677,27.035 33.000,27.101 L33.000,14.000 ZM32.000,29.000 C30.343,29.000 29.000,30.343 29.000,32.000 C29.000,33.657 30.343,35.000 32.000,35.000 C33.657,35.000 35.000,33.657 35.000,32.000 C35.000,30.343 33.657,29.000 32.000,29.000 ZM44.020,42.606 L36.169,34.754 C35.797,35.316 35.316,35.797 34.754,36.169 L42.606,44.022 C42.997,44.412 43.630,44.412 44.020,44.020 C44.411,43.630 44.411,42.997 44.020,42.606 ZM32.000,33.000 C31.447,33.000 31.000,32.553 31.000,32.000 C31.000,31.447 31.447,31.000 32.000,31.000 C32.553,31.000 33.000,31.447 33.000,32.000 C33.000,32.553 32.553,33.000 32.000,33.000 Z" class="cls-1"/>
</svg>
