<svg xmlns="http://www.w3.org/2000/svg" xmlns:xlink="http://www.w3.org/1999/xlink" preserveAspectRatio="xMidYMid" width="64" height="64" viewBox="0 0 64 64">
  <defs>
    <style>
      .cls-1 {
        fill: #ba271f;
        fill-rule: evenodd;
      }
    </style>
  </defs>
  <path d="M32.000,0.000 C14.327,0.000 0.000,14.327 0.000,32.000 C0.000,49.673 14.327,64.000 32.000,64.000 C49.673,64.000 64.000,49.673 64.000,32.000 C64.000,14.327 49.673,0.000 32.000,0.000 ZM49.972,31.000 C49.834,25.418 48.558,20.122 46.358,15.333 C49.011,14.311 51.527,13.016 53.873,11.479 C58.697,16.619 61.727,23.455 61.975,31.000 L49.972,31.000 ZM33.333,61.966 C33.223,61.971 33.111,61.971 33.000,61.974 L33.000,50.035 C36.324,50.122 39.547,50.616 42.606,51.505 C40.184,55.541 37.029,59.084 33.333,61.966 ZM44.549,52.140 C46.832,52.941 49.011,53.958 51.072,55.158 C47.081,58.448 42.224,60.721 36.894,61.596 C39.902,58.861 42.484,55.672 44.549,52.140 ZM21.394,51.505 C24.452,50.615 27.676,50.122 31.000,50.035 L31.000,61.974 C30.889,61.971 30.777,61.971 30.667,61.966 C26.970,59.084 23.816,55.541 21.394,51.505 ZM27.106,61.596 C21.776,60.721 16.919,58.448 12.928,55.157 C14.989,53.957 17.168,52.940 19.451,52.140 C21.515,55.672 24.098,58.861 27.106,61.596 ZM2.025,31.000 C2.273,23.455 5.303,16.619 10.127,11.479 C12.473,13.016 14.989,14.311 17.642,15.333 C15.442,20.122 14.166,25.418 14.028,31.000 L2.025,31.000 ZM43.570,14.197 C40.226,15.265 36.677,15.866 33.000,15.962 L33.000,2.025 C33.111,2.029 33.223,2.029 33.333,2.034 C37.541,5.314 41.047,9.453 43.570,14.197 ZM36.894,2.404 C42.839,3.380 48.192,6.101 52.415,10.026 C50.239,11.417 47.919,12.597 45.471,13.525 C43.278,9.326 40.369,5.562 36.894,2.404 ZM31.000,2.025 L31.000,15.962 C27.323,15.866 23.774,15.265 20.430,14.197 C22.953,9.453 26.459,5.314 30.667,2.034 C30.777,2.029 30.889,2.029 31.000,2.025 ZM18.529,13.525 C16.081,12.597 13.761,11.417 11.585,10.026 C15.808,6.101 21.161,3.380 27.106,2.404 C23.631,5.562 20.722,9.326 18.529,13.525 ZM19.532,16.009 C23.154,17.198 27.004,17.882 31.000,17.981 L31.000,31.000 L16.031,31.000 C16.170,25.654 17.403,20.584 19.532,16.009 ZM31.000,33.000 L31.000,48.036 C27.316,48.128 23.755,48.701 20.385,49.726 C17.732,44.712 16.187,39.029 16.031,33.000 L31.000,33.000 ZM33.000,48.036 L33.000,33.000 L47.969,33.000 C47.812,39.029 46.268,44.712 43.615,49.726 C40.245,48.701 36.684,48.128 33.000,48.036 ZM33.000,31.000 L33.000,17.981 C36.996,17.882 40.846,17.198 44.468,16.009 C46.597,20.584 47.830,25.654 47.969,31.000 L33.000,31.000 ZM2.025,33.000 L14.028,33.000 C14.183,39.253 15.769,45.146 18.476,50.369 C15.979,51.269 13.604,52.413 11.366,53.766 C5.827,48.513 2.294,41.172 2.025,33.000 ZM52.634,53.766 C50.396,52.413 48.020,51.269 45.524,50.369 C48.231,45.146 49.817,39.253 49.972,33.000 L61.975,33.000 C61.706,41.172 58.173,48.513 52.634,53.766 Z" class="cls-1"/>
</svg>
