<svg xmlns="http://www.w3.org/2000/svg" xmlns:xlink="http://www.w3.org/1999/xlink" preserveAspectRatio="xMidYMid" width="40" height="64" viewBox="0 0 40 64">
  <defs>
    <style>
      .cls-1 {
        fill: #ba271f;
        fill-rule: evenodd;
      }
    </style>
  </defs>
  <path d="M36.000,64.000 L4.000,64.000 C1.789,64.000 -0.000,62.211 -0.000,60.000 L-0.000,4.000 C-0.000,1.789 1.789,0.000 4.000,0.000 L36.000,0.000 C38.211,0.000 40.000,1.789 40.000,4.000 L40.000,60.000 C40.000,62.211 38.211,64.000 36.000,64.000 ZM38.000,4.000 C38.000,2.896 37.104,2.000 36.000,2.000 L4.000,2.000 C2.895,2.000 2.000,2.896 2.000,4.000 L2.000,8.000 L38.000,8.000 L38.000,4.000 ZM38.000,10.000 L2.000,10.000 L2.000,50.000 L38.000,50.000 L38.000,10.000 ZM38.000,52.000 L2.000,52.000 L2.000,60.000 C2.000,61.104 2.895,62.000 4.000,62.000 L36.000,62.000 C37.104,62.000 38.000,61.104 38.000,60.000 L38.000,52.000 ZM20.000,60.000 C18.342,60.000 17.000,58.658 17.000,57.000 C17.000,55.342 18.342,54.000 20.000,54.000 C21.658,54.000 23.000,55.342 23.000,57.000 C23.000,58.658 21.658,60.000 20.000,60.000 ZM20.000,56.000 C19.447,56.000 19.000,56.447 19.000,57.000 C19.000,57.553 19.447,58.000 20.000,58.000 C20.553,58.000 21.000,57.553 21.000,57.000 C21.000,56.447 20.553,56.000 20.000,56.000 ZM15.000,4.000 L21.000,4.000 C21.553,4.000 22.000,4.447 22.000,5.000 C22.000,5.553 21.553,6.000 21.000,6.000 L15.000,6.000 C14.447,6.000 14.000,5.553 14.000,5.000 C14.000,4.447 14.447,4.000 15.000,4.000 ZM25.000,4.000 C25.553,4.000 26.000,4.447 26.000,5.000 C26.000,5.553 25.553,6.000 25.000,6.000 C24.447,6.000 24.000,5.553 24.000,5.000 C24.000,4.447 24.447,4.000 25.000,4.000 Z" class="cls-1"/>
</svg>
