<svg xmlns="http://www.w3.org/2000/svg" xmlns:xlink="http://www.w3.org/1999/xlink" preserveAspectRatio="xMidYMid" width="64" height="64" viewBox="0 0 64 64">
  <defs>
    <style>
      .cls-1 {
        fill: #ba271f;
        fill-rule: evenodd;
      }
    </style>
  </defs>
  <path d="M64.000,60.000 C64.000,62.211 62.211,64.000 60.000,64.000 L4.000,64.000 C1.789,64.000 0.000,62.211 0.000,60.000 L0.000,52.000 C0.000,50.344 0.672,48.844 1.758,47.758 L1.744,47.744 C7.591,42.991 14.584,39.608 22.236,38.023 C19.626,35.479 18.000,31.932 18.000,28.000 C16.343,28.000 15.000,26.657 15.000,25.000 L15.000,23.000 C15.000,22.115 15.391,21.327 16.000,20.778 L16.000,12.000 C16.000,5.373 21.373,0.000 28.000,0.000 L36.000,0.000 C42.627,0.000 48.000,5.373 48.000,12.000 L48.000,20.778 C48.609,21.327 49.000,22.115 49.000,23.000 L49.000,25.000 C49.000,26.657 47.657,28.000 46.000,28.000 C46.000,31.932 44.374,35.479 41.765,38.023 C49.416,39.607 56.409,42.991 62.256,47.744 L62.242,47.758 C63.328,48.844 64.000,50.344 64.000,52.000 L64.000,60.000 ZM46.000,12.000 C46.000,6.477 41.522,2.000 36.000,2.000 L28.000,2.000 C22.477,2.000 18.000,6.477 18.000,12.000 L18.000,19.000 C18.000,15.686 20.686,13.000 24.000,13.000 C26.209,13.000 28.000,11.209 28.000,9.000 C28.000,8.447 28.447,8.000 29.000,8.000 C29.553,8.000 30.000,8.447 30.000,9.000 C30.000,11.209 31.791,13.000 34.000,13.000 L40.000,13.000 C43.313,13.000 46.000,15.686 46.000,19.000 L46.000,12.000 ZM44.000,28.000 L44.000,27.000 C44.000,26.447 44.447,26.000 45.000,26.000 L46.000,26.000 C46.553,26.000 47.000,25.553 47.000,25.000 L47.000,23.000 C47.000,22.447 46.553,22.000 46.000,22.000 L45.000,22.000 C44.447,22.000 44.000,21.553 44.000,21.000 L44.000,20.000 L44.000,19.000 C44.000,16.791 42.209,15.000 40.000,15.000 L34.000,15.000 C31.912,15.000 30.074,13.932 29.000,12.313 C27.926,13.932 26.088,15.000 24.000,15.000 C21.791,15.000 20.000,16.791 20.000,19.000 L20.000,20.000 L20.000,21.000 C20.000,21.553 19.553,22.000 19.000,22.000 L18.000,22.000 C17.447,22.000 17.000,22.447 17.000,23.000 L17.000,25.000 C17.000,25.553 17.447,26.000 18.000,26.000 L19.000,26.000 C19.553,26.000 20.000,26.447 20.000,27.000 L20.000,28.000 C20.000,34.627 25.373,40.000 32.000,40.000 C38.627,40.000 44.000,34.627 44.000,28.000 ZM39.715,39.678 C37.502,41.143 34.852,42.000 32.000,42.000 C29.147,42.000 26.498,41.143 24.285,39.678 C22.610,39.961 20.960,40.315 19.352,40.774 C22.602,43.989 27.041,46.000 31.973,46.000 C36.911,46.000 41.355,43.984 44.606,40.762 C43.012,40.308 41.375,39.959 39.715,39.678 ZM62.000,52.000 C62.000,50.895 61.553,49.895 60.828,49.172 L60.832,49.168 C56.672,45.816 51.910,43.190 46.743,41.440 C43.088,45.462 37.835,48.000 31.973,48.000 C26.117,48.000 20.869,45.467 17.214,41.454 C12.064,43.204 7.316,45.825 3.168,49.168 L3.172,49.172 C2.447,49.895 2.000,50.895 2.000,52.000 L2.000,60.000 C2.000,61.104 2.895,62.000 4.000,62.000 L60.000,62.000 C61.104,62.000 62.000,61.104 62.000,60.000 L62.000,52.000 ZM39.458,21.889 C39.311,21.965 39.155,22.000 39.001,22.000 C38.639,22.000 38.289,21.803 38.111,21.458 C38.096,21.436 37.808,21.000 37.000,21.000 C36.182,21.000 35.912,21.419 35.884,21.467 C35.612,21.931 35.014,22.117 34.539,21.862 C34.065,21.609 33.866,21.047 34.100,20.565 C34.382,19.984 35.309,19.000 37.000,19.000 C38.653,19.000 39.594,19.969 39.889,20.542 C40.142,21.032 39.949,21.636 39.458,21.889 ZM29.456,21.889 C29.310,21.965 29.153,22.000 28.999,22.000 C28.637,22.000 28.287,21.803 28.109,21.458 C28.094,21.436 27.806,21.000 26.998,21.000 C26.180,21.000 25.910,21.419 25.882,21.467 C25.610,21.931 25.012,22.117 24.537,21.862 C24.064,21.609 23.864,21.047 24.098,20.565 C24.380,19.984 25.307,19.000 26.998,19.000 C28.651,19.000 29.592,19.969 29.887,20.542 C30.140,21.032 29.947,21.636 29.456,21.889 Z" class="cls-1"/>
</svg>
